<?xml version="1.0" encoding="UTF-8" standalone="no"?>
<!-- Generator: Adobe Illustrator 15.0.2, SVG Export Plug-In . SVG Version: 6.00 Build 0)  -->

<svg
   xmlns:dc="http://purl.org/dc/elements/1.1/"
   xmlns:cc="http://creativecommons.org/ns#"
   xmlns:rdf="http://www.w3.org/1999/02/22-rdf-syntax-ns#"
   xmlns:svg="http://www.w3.org/2000/svg"
   xmlns="http://www.w3.org/2000/svg"
   xmlns:sodipodi="http://sodipodi.sourceforge.net/DTD/sodipodi-0.dtd"
   xmlns:inkscape="http://www.inkscape.org/namespaces/inkscape"
   version="1.1"
   id="Layer_1"
   x="0px"
   y="0px"
   width="96.000031"
   height="59.999966"
   viewBox="0 0 96.000031 59.999966"
   enable-background="new 0 0 363 227"
   xml:space="preserve"
   inkscape:version="0.48.5 r10040"
   sodipodi:docname="logo_hro.svg"
   inkscape:export-filename="D:\hro_logo.png"
   inkscape:export-xdpi="300.12952"
   inkscape:export-ydpi="300.12952"><metadata
   id="metadata3108"><rdf:RDF><cc:Work
       rdf:about=""><dc:format>image/svg+xml</dc:format><dc:type
         rdf:resource="http://purl.org/dc/dcmitype/StillImage" /><dc:title /></cc:Work></rdf:RDF></metadata><defs
   id="defs3106" /><sodipodi:namedview
   pagecolor="#ffffff"
   bordercolor="#666666"
   borderopacity="1"
   objecttolerance="10"
   gridtolerance="10"
   guidetolerance="10"
   inkscape:pageopacity="0"
   inkscape:pageshadow="2"
   inkscape:window-width="1920"
   inkscape:window-height="1178"
   id="namedview3104"
   showgrid="false"
   fit-margin-top="0"
   fit-margin-left="0"
   fit-margin-right="0"
   fit-margin-bottom="0"
   inkscape:zoom="16.016676"
   inkscape:cx="48.000015"
   inkscape:cy="29.999983"
   inkscape:window-x="-8"
   inkscape:window-y="-8"
   inkscape:window-maximized="1"
   inkscape:current-layer="Layer_1" />
<path
   d="M 44.122461,0 V 42.67863 H -1.4327918e-7 C 41.607154,32.506742 44.122461,0 44.122461,0 l 0,0 z"
   id="path3058"
   inkscape:connector-curvature="0"
   style="fill:#006cb7" />
<path
   d="M 51.877835,0 V 42.67863 H 96.000033 C 54.393142,32.506742 51.877835,0 51.877835,0 l 0,0 z"
   id="path3060"
   inkscape:connector-curvature="0"
   style="fill:#d81920" />
<path
   stroke-miterlimit="3.8637"
   d="m 45.170792,28.856556 c 1.213884,-0.218853 2.281521,-0.801668 2.281521,-0.801668 0.242777,-0.121321 1.432067,-0.218322 2.184728,0.218853 -0.121124,0.485282 -1.795967,0.704135 -2.233124,0.655505 -0.704265,0.121321 -1.480728,0.922457 -2.233125,-0.0727 l 0,0 z"
   id="path3062"
   inkscape:connector-curvature="0"
   style="fill:#ffcc00;stroke:#ffffff;stroke-width:0.11622532;stroke-miterlimit:3.86369991" />
<path
   stroke-miterlimit="3.8637"
   d="m 46.942429,30.507466 c 1.383405,0.242641 2.063604,-0.388538 2.063604,-0.388538 0.824594,-0.801144 2.063339,-0.340174 2.063339,-0.340174 0.07246,0.291536 -1.796232,1.019725 -1.796232,1.019725 0,0 -1.796496,0.825985 -2.330711,-0.291013 l 0,0 z"
   id="path3064"
   inkscape:connector-curvature="0"
   style="fill:#ffcc00;stroke:#ffffff;stroke-width:0.11622532;stroke-miterlimit:3.86369991" />
<path
   stroke-miterlimit="3.8637"
   d="m 41.772708,28.248899 c 0,0 -2.209059,-0.412857 -2.694084,0.898137 -0.315504,1.505803 0.534215,1.092947 0.461224,0.607399 3.179373,-0.607399 3.664662,1.821392 3.664662,1.821392 0.09652,0.825721 -3.5922,0.38907 -3.5922,0.38907 -0.09732,1.092414 3.956101,0.728453 3.956101,0.728453 0,0 -1.529389,3.278033 -4.538713,3.084022 -5.145654,-0.996203 -5.84939,-4.080225 -5.84939,-4.080225 -0.170049,-0.24264 0.995438,-2.064298 0.825389,-2.816804 -0.170049,-1.286949 -1.334744,-0.971353 -1.432067,-0.801136 -0.07247,0.388811 0.801059,0.0727 0.558282,0.801136 -0.48529,0.753038 -0.461223,1.481484 -0.461223,1.942978 -0.145984,0.898411 -0.849984,0.339907 -0.995704,0.169957 0,0 -1.164694,-1.068361 -0.921917,-2.136722 0.09706,-1.384217 -1.334745,-1.092939 -1.286612,-0.898404 -0.09705,0.12132 0.874049,0.437175 0.388497,2.015402 0.02433,0.51039 1.091966,1.336111 1.091966,1.336111 0.58314,0.874085 -0.995173,1.044043 -1.091966,0.849766 -1.213886,-0.631444 -1.625919,-0.24264 -1.650249,-0.04864 1.189024,0.218854 0.946248,1.140778 1.213619,1.238577 0.266844,0.218588 1.917356,-1.359897 3.300234,-0.534177 0.509884,0.510124 -0.898117,1.651435 -0.825389,1.821657 0.09705,0.242641 1.893289,-0.51013 1.893289,-0.51013 0.776728,-0.04893 2.76734,2.841381 2.76734,2.841381 0,0 0.436364,0.485547 0.02433,0.995679 -4.078018,3.472567 -4.442184,0.607125 -4.951804,0.752764 -0.145718,0.218853 -0.33957,1.942978 2.111736,1.651965 -2.597289,0.65524 -2.912793,-1.068619 -3.228298,-0.92298 -0.363901,1.772754 1.650249,1.869756 1.650249,1.869756 1.893555,0.194277 3.446745,-0.753031 3.446745,-0.753031 -2.07577,1.606502 -3.956101,0.77656 -3.78658,1.092939 0.04893,0.121321 0.752661,1.360163 3.301025,0.121321 2.596762,-1.772489 3.2283,-0.82519 3.2283,-0.82519 0,0 0.84919,0.922199 -2.40344,2.719537 -2.960661,1.893817 -2.426975,-0.947307 -2.717884,-0.607133 -0.242777,0.12132 -0.655604,3.545258 -2.670282,1.505537 -0.388496,-0.558496 -1.456133,-2.719795 -2.305853,-1.18994 -0.04893,0.193214 0.388497,-0.412864 0.800794,-0.09727 0.09758,1.505013 1.213885,1.602546 1.213885,1.602546 1.18929,0.631179 -0.07272,1.311002 -0.242513,1.262099 -3.010117,0.364226 -2.184728,1.894347 -2.184728,1.894347 0.07246,-0.315596 0.291439,-1.26263 1.068166,-0.583079 1.334744,-1.481219 2.670017,-1.383951 2.670017,-1.383951 0.485291,0.170747 0.121125,1.14131 -0.170049,1.408794 -3.446746,1.990817 -1.165224,2.282626 -1.165224,2.282626 -0.291702,-0.09701 -0.460959,-1.335851 0.558017,-0.776558 2.039009,-3.084023 3.42215,-3.618473 3.42215,-3.618473 2.548629,-1.359898 3.349422,0.874882 1.893026,1.311534 0.655603,0.170481 1.626181,-0.874617 1.626181,-0.874617 0,0 0.04893,0.461228 -1.21362,1.384217 0.922446,-0.122383 2.111472,-1.214791 2.111472,-1.214791 0,0 -0.04867,0.436644 -0.849719,1.239102 1.431802,-0.510655 1.771637,-1.165622 1.771637,-1.165622 0,0 -0.242248,0.825456 -0.582612,1.189941 1.650778,-0.339908 2.524298,-2.597952 2.524298,-2.597952 0,0 0.970579,1.578227 4.975605,0.436652 3.009589,-0.874883 4.271605,-0.655239 4.271605,-0.655239 0,0 -2.135802,0.218587 -1.941687,2.622536 -0.04892,1.383684 -1.893024,2.28341 -1.893024,2.28341 -1.553456,0.631716 -1.820829,-0.898405 -1.820829,-0.898405 -0.0484,-1.165362 -1.480462,-0.364226 -1.480462,-0.364226 0,0 1.019504,-0.097 1.043835,0.170223 -0.606679,0.631976 0.631008,1.31126 0.412826,1.433112 -1.456397,-1.602538 -2.42724,-0.82572 -2.42724,-0.82572 0.87405,-0.121321 0.898116,1.093203 1.650513,1.165362 0.558017,0.242641 1.723505,-0.02428 1.723505,-0.02428 0,0 -0.510149,0.728719 -1.893555,0.364227 -2.160133,-1.044043 -1.650249,0.801144 -1.650249,0.801144 0.218447,-1.043785 0.946778,-0.485548 0.946778,-0.485548 0.291439,0.291537 -0.218182,0.776552 1.140365,0.995671 1.674842,0.315855 2.864397,-1.043777 2.864397,-1.043777 1.092232,-0.971884 3.05772,-1.068893 3.05772,-1.068893 0.557752,-0.24264 0.291966,-3.861106 4.102084,-3.836787 0.582611,0.02428 0.314711,2.501208 4.805555,2.743849 3.009853,-0.509866 2.888464,0.194003 2.888464,0.194003 0.413091,0.995944 -1.917621,0.971625 -1.917621,0.971625 l 0.874579,0.267484 c 0,0 -1.310678,0 -1.238744,1.189948 0.364165,-0.655239 1.505058,-0.704401 1.505058,-0.704401 0,0 -0.800793,0.267749 -0.607207,0.825455 0.51015,-0.363961 1.092497,-0.388279 1.092497,-0.388279 0,0 -0.631274,0.388279 -0.655603,0.558236 0.728066,0.339909 1.723769,-0.121851 1.723769,-0.121851 0,0 2.74248,-1.675495 1.504793,-3.011605 -0.486082,-0.776551 -0.267636,-1.408003 -0.510414,-1.505005 -0.461487,-0.04915 -4.878546,0 -5.097257,-1.991084 4.539506,1.626591 6.020234,-0.874085 6.020234,-0.874085 0.485024,-0.315855 1.431537,-5.196958 -2.57296,-4.249651 -5.82506,1.893809 -5.145391,-0.41313 -5.145391,-0.41313 0.436629,-2.185618 4.392993,-0.801136 4.392993,-0.801136 3.640597,1.918659 4.78149,-0.04864 4.829886,-0.364492 0.315241,-0.777084 -0.389024,-2.890012 0.849721,-4.298281 -0.388762,-0.194277 -3.398085,-1.602539 -4.490317,0.340174 -0.679933,0.898137 0,1.796541 0,1.796541 1.432067,2.040246 0.218182,1.869764 0.0722,1.797081 -0.267373,-0.0727 -2.791406,-1.019732 -4.392464,-0.485282 -3.617324,1.238577 -2.257456,4.006479 -0.825389,4.134937 1.043042,0.454888 4.344332,-0.4681 4.344332,-0.4681 2.815472,-0.461495 1.820827,2.355045 1.699438,2.330726 -1.359867,1.335845 -4.829886,-0.02428 -4.951539,-0.218322 -0.388231,-0.194011 -3.398348,-2.258575 -6.67425,-2.501216 8.615937,-4.905679 10.703607,-7.479577 10.703607,-7.479577 3.057985,-3.18129 2.985258,-5.85272 2.985258,-5.85272 0,0 -1.261753,1.287214 -1.795969,1.311533 0.412828,-0.631452 0.218447,-0.704401 0.218447,-0.704401 0,0 -2.815471,2.452312 -7.451241,2.695485 0.485288,-0.631452 0.339834,-0.752773 0.339834,-0.752773 -0.21871,-0.218853 -2.039274,0.776826 -2.039274,0.776826 0,0 1.480728,-1.019991 1.213885,-1.408535 -0.558282,-0.02406 -1.262016,0.971617 -3.374282,1.238843 1.480992,-0.72872 1.310942,-0.898405 1.310942,-0.898405 0,0 -0.291966,-0.315596 -3.592463,1.360165 -4.053423,1.942712 -1.941952,4.978104 -1.941952,4.978104 0,0 0.898117,1.894074 -0.121124,3.181289 -1.359867,1.384216 -4.32053,0.412857 -3.252364,-0.607134 4.247802,-4.176959 1.091967,-8.013754 1.091967,-8.013754 0,0 0.800794,-0.04864 1.116827,-0.170223 0.387967,-0.218588 1.383141,-0.170216 1.480992,-0.509859 0,-0.12132 -0.582611,-0.801136 -2.572959,0.145639 -0.485554,0.194004 -1.01924,-0.291809 -1.01924,-0.291809 0,0 -2.667109,-2.210993 -3.637952,-1.21558 l 0,0 z"
   id="path3066"
   inkscape:connector-curvature="0"
   style="fill:#ffcb05;stroke:#ffffff;stroke-width:0.11622532;stroke-miterlimit:3.86369991" />
<path
   stroke-miterlimit="3.8637"
   d="m 35.073862,28.564754 c 0.582877,-1.117258 1.820299,-0.582815 1.844894,-0.194269 0.314975,0.582814 0,1.967031 0,1.967031 -0.534479,2.647112 1.72324,1.141309 1.72324,1.141309 1.52886,-1.602804 2.718414,-0.631716 2.718414,-0.631716 l 1.286083,0.874881 c 0,0 -2.451306,-0.80166 -3.397819,0.0724 -1.845157,2.136988 -3.058249,0.63171 -3.058249,0.63171 -0.703472,-0.776818 0.121389,-2.428518 0.121389,-2.428518 0.485553,-1.796814 -1.237952,-1.432853 -1.237952,-1.432853 l 0,0 z"
   id="path3068"
   inkscape:connector-curvature="0"
   style="fill:#d81920;stroke:#ffffff;stroke-width:0.11622532;stroke-miterlimit:3.86369991" />
<polygon
   points="19,207.97 13.328,207.97 13.328,214.509 7.522,214.509 7.522,207.836 1.851,207.836 1.851,226.672 7.522,226.672 7.522,218.034 13.328,218.034 13.328,226.672 19,226.672 "
   id="polygon3070"
   style="fill:#006cb7"
   transform="scale(0.2644629,0.26431472)" />
<path
   d="m 8.2369612,54.934109 -2.0263147,4.978636 h 1.1731574 l 0.4762974,-1.187829 h 1.5428771 l 0.3908759,1.187829 H 11.386185 L 9.4958045,54.934109 H 8.2369612 l 0,0 z m -0.1211239,3.001295 c 0.1853886,-0.59021 0.3557022,-1.066775 0.547438,-1.77857 h 0.014547 c 0.1779833,0.711005 0.3197355,1.187563 0.4834385,1.77857 H 8.1158395 l 0,0 z"
   id="path3072"
   inkscape:connector-curvature="0"
   style="fill:#006cb7" />
<path
   d="m 17.001262,54.934109 h -1.17977 v 2.851958 h -0.01455 c -0.355435,-0.675853 -1.428361,-1.969938 -2.146378,-2.851958 h -1.087735 v 4.978636 h 1.179768 v -2.915659 h 0.01428 c 0.476298,0.8244 1.486017,2.012229 2.232066,2.915394 h 1.00205 l 2.66e-4,-4.978371 0,0 z"
   id="path3074"
   inkscape:connector-curvature="0"
   style="fill:#006cb7" />
<path
   d="m 21.685164,55.182831 c -0.170579,-0.106515 -0.667768,-0.334357 -1.300629,-0.334357 -0.938578,0 -1.741487,0.540258 -1.741487,1.337432 0,0.611095 0.305455,0.874881 0.824858,1.329238 0.390877,0.342027 0.874315,0.633298 0.874315,1.030825 0,0.369518 -0.326875,0.519379 -0.625454,0.519379 -0.355438,0 -0.639471,-0.184224 -0.853158,-0.347835 l -0.454876,0.824924 c 0.398017,0.32035 0.980364,0.455413 1.563505,0.455413 1.492893,0 1.855471,-1.023954 1.855471,-1.465092 0,-0.519379 -0.156561,-0.896293 -0.796032,-1.493382 -0.483703,-0.447219 -0.902877,-0.675852 -0.902877,-0.95259 0,-0.163345 0.149158,-0.305545 0.440595,-0.305545 0.277421,0 0.533421,0.06399 0.732298,0.184756 l 0.383471,-0.783166 0,0 z"
   id="path3076"
   inkscape:connector-curvature="0"
   style="fill:#006cb7" />
<polygon
   points="99.276,207.836 87.853,207.836 87.853,226.672 100.433,226.672 100.433,223.146 93.524,223.146 93.524,218.599 99.142,218.599 99.142,215.073 93.524,215.073 93.524,211.36 99.276,211.36 "
   id="polygon3078"
   style="fill:#006cb7"
   transform="scale(0.2644629,0.26431472)" />
<path
   d="m 31.016737,55.182831 c -0.170578,-0.106515 -0.668033,-0.334357 -1.300628,-0.334357 -0.938579,0 -1.741488,0.540258 -1.741488,1.337432 0,0.611095 0.305454,0.874881 0.824596,1.329238 0.39114,0.342027 0.874578,0.633298 0.874578,1.030825 0,0.369518 -0.326877,0.519379 -0.625455,0.519379 -0.355438,0 -0.639735,-0.184224 -0.853157,-0.347835 l -0.455405,0.824924 c 0.398281,0.32035 0.980893,0.455413 1.564033,0.455413 1.492629,0 1.855208,-1.023954 1.855208,-1.465092 0,-0.519379 -0.156827,-0.896293 -0.796298,-1.493382 -0.483439,-0.447219 -0.902347,-0.675852 -0.902347,-0.95259 0,-0.163345 0.148892,-0.305545 0.440594,-0.305545 0.277158,0 0.533422,0.06399 0.732298,0.184756 l 0.383471,-0.783166 0,0 z"
   id="path3080"
   inkscape:connector-curvature="0"
   style="fill:#006cb7" />
<polygon
   points="121.74,207.836 121.74,211.36 127.169,211.36 127.169,226.672 132.84,226.672 132.84,211.36 138.271,211.36 138.271,207.836 "
   id="polygon3082"
   style="fill:#006cb7"
   transform="scale(0.2644629,0.26431472)" />
<path
   d="m 39.01912,54.934109 -2.02605,4.978636 h 1.173157 l 0.476298,-1.187829 h 1.542612 l 0.390877,1.187829 h 1.59233 L 40.277435,54.934109 H 39.01912 l 0,0 z m -0.120595,3.001295 c 0.18486,-0.59021 0.355438,-1.066775 0.547438,-1.77857 h 0.01428 c 0.177719,0.711005 0.319735,1.187563 0.483438,1.77857 h -1.045157 l 0,0 z"
   id="path3084"
   inkscape:connector-curvature="0"
   style="fill:#006cb7" />
<path
   d="m 43.355255,54.934109 v 4.978636 h 1.876628 c 1.492893,0 2.814414,-0.80986 2.814414,-2.631518 0,-1.202102 -0.767207,-2.347118 -2.758083,-2.347118 h -1.932959 l 0,0 z m 1.499239,0.931447 h 0.433984 c 0.654016,0 1.216001,0.519379 1.216001,1.422543 0,1.003074 -0.405422,1.692668 -1.265456,1.692668 h -0.384265 v -3.115211 l -2.64e-4,0 z"
   id="path3086"
   inkscape:connector-curvature="0"
   style="fill:#006cb7" />
<polygon
   points="185.681,207.836 185.681,211.36 191.11,211.36 191.11,226.672 196.781,226.672 196.781,211.36 202.211,211.36 202.211,207.836 "
   id="polygon3088"
   style="fill:#006cb7"
   transform="scale(0.2644629,0.26431472)" />
<path
   d="m 59.120152,55.865556 h 0.398281 c 0.319735,0 0.625454,0.121054 0.625454,0.611096 0,0.270132 -0.19914,0.611627 -0.597157,0.611627 h -0.426578 v -1.222723 l 0,0 z m -1.499769,4.047189 h 1.499769 v -1.884827 h 0.39114 l 0.7881,1.969932 1.606348,-0.163345 -1.101753,-2.133808 c 0.462281,-0.226787 0.838877,-0.675595 0.838877,-1.436551 0,-0.81806 -0.632597,-1.330037 -1.805489,-1.330037 h -2.217786 l 8.13e-4,4.978636 0,0 z"
   id="path3090"
   inkscape:connector-curvature="0"
   style="fill:#006cb7" />
<path
   d="m 65.411724,59.99785 c 1.528067,0 2.473786,-1.145009 2.473786,-2.631511 0,-1.393471 -1.044893,-2.517075 -2.473786,-2.517075 -1.428364,0 -2.473521,1.123338 -2.473521,2.517075 -5.3e-4,1.486502 0.944926,2.631511 2.473521,2.631511 l 0,0 z m 0,-1.038228 c -0.667503,0 -0.909223,-0.655231 -0.909223,-1.593283 0,-0.88176 0.269752,-1.479373 0.909223,-1.479373 0.640265,0 0.909488,0.597613 0.909488,1.479373 0,0.939108 -0.241454,1.593283 -0.909488,1.593283 l 0,0 z"
   id="path3092"
   inkscape:connector-curvature="0"
   style="fill:#006cb7" />
<path
   d="m 72.434272,55.182831 c -0.170842,-0.106515 -0.667504,-0.334357 -1.301157,-0.334357 -0.938315,0 -1.741753,0.540258 -1.741753,1.337432 0,0.611095 0.305719,0.874881 0.82486,1.329238 0.391141,0.342027 0.874578,0.633298 0.874578,1.030825 0,0.369518 -0.326612,0.519379 -0.625719,0.519379 -0.355438,0 -0.639736,-0.184224 -0.853157,-0.347835 l -0.45514,0.824924 c 0.398281,0.32035 0.980892,0.455413 1.564033,0.455413 1.492099,0 1.855207,-1.023954 1.855207,-1.465092 0,-0.519379 -0.156297,-0.896293 -0.796033,-1.493382 -0.483439,-0.447219 -0.902876,-0.675852 -0.902876,-0.95259 0,-0.163345 0.148628,-0.305545 0.440859,-0.305545 0.277156,0 0.533157,0.06399 0.732562,0.184756 l 0.383736,-0.783166 0,0 z"
   id="path3094"
   inkscape:connector-curvature="0"
   style="fill:#006cb7" />
<polygon
   points="278.349,207.836 278.349,211.36 283.778,211.36 283.778,226.672 289.45,226.672 289.45,211.36 294.879,211.36 294.879,207.836 "
   id="polygon3096"
   style="fill:#006cb7"
   transform="scale(0.2644629,0.26431472)" />
<path
   d="m 81.516987,59.99785 c 1.528063,0 2.473788,-1.145009 2.473788,-2.631511 0,-1.393471 -1.045159,-2.517075 -2.473788,-2.517075 -1.428627,0 -2.473787,1.123338 -2.473787,2.517075 2.66e-4,1.486502 0.945718,2.631511 2.473787,2.631511 l 0,0 z m 0,-1.038228 c -0.668034,0 -0.909489,-0.655231 -0.909489,-1.593283 0,-0.88176 0.270018,-1.479373 0.909489,-1.479373 0.640003,0 0.90949,0.597613 0.90949,1.479373 5.24e-4,0.939108 -0.24093,1.593283 -0.90949,1.593283 l 0,0 z"
   id="path3098"
   inkscape:connector-curvature="0"
   style="fill:#006cb7" />
<path
   d="m 89.207564,58.845705 c -0.227172,0.05683 -0.525747,0.11498 -0.845752,0.11498 -0.782017,0 -1.514047,-0.469427 -1.514047,-1.529331 0,-1.081041 0.72489,-1.543332 1.443176,-1.543332 0.141749,0 0.582344,0.0214 0.824065,0.09251 l 0.369452,-0.881754 c -0.355968,-0.156473 -0.945187,-0.247931 -1.272591,-0.247931 -1.691506,0 -2.928665,1.016823 -2.928665,2.524736 0,1.628709 1.358016,2.624381 3.013818,2.624381 0.455142,0 0.924302,-0.113652 1.201454,-0.22044 l -0.29091,-0.933823 0,0 z"
   id="path3100"
   inkscape:connector-curvature="0"
   style="fill:#006cb7" />
<polygon
   points="349.279,215.612 349.279,207.836 343.608,207.836 343.608,226.672 349.279,226.672 349.279,217.522 349.334,217.522 354.817,226.94 360.703,225.919 354.092,216.069 358.929,208.562 354.012,207.567 349.334,215.612 "
   id="polygon3102"
   style="fill:#006cb7"
   transform="scale(0.2644629,0.26431472)" />
</svg>