<?xml version="1.0" encoding="UTF-8" standalone="no"?>
<!-- Generator: Adobe Illustrator 15.0.2, SVG Export Plug-In . SVG Version: 6.00 Build 0)  -->

<svg
   xmlns:dc="http://purl.org/dc/elements/1.1/"
   xmlns:cc="http://creativecommons.org/ns#"
   xmlns:rdf="http://www.w3.org/1999/02/22-rdf-syntax-ns#"
   xmlns:svg="http://www.w3.org/2000/svg"
   xmlns="http://www.w3.org/2000/svg"
   xmlns:sodipodi="http://sodipodi.sourceforge.net/DTD/sodipodi-0.dtd"
   xmlns:inkscape="http://www.inkscape.org/namespaces/inkscape"
   version="1.1"
   id="Layer_1"
   x="0px"
   y="0px"
   width="130"
   height="130"
   viewBox="0 0 130.00001 130.00001"
   enable-background="new 0 0 363 227"
   xml:space="preserve"
   inkscape:version="0.48.5 r10040"
   sodipodi:docname="logo.svg"
   inkscape:export-filename="D:\logo.png"
   inkscape:export-xdpi="28.93"
   inkscape:export-ydpi="28.93"><metadata
   id="metadata3108"><rdf:RDF><cc:Work
       rdf:about=""><dc:format>image/svg+xml</dc:format><dc:type
         rdf:resource="http://purl.org/dc/dcmitype/StillImage" /><dc:title /></cc:Work></rdf:RDF></metadata><defs
   id="defs3106" /><sodipodi:namedview
   pagecolor="#ffffff"
   bordercolor="#666666"
   borderopacity="1"
   objecttolerance="10"
   gridtolerance="10"
   guidetolerance="10"
   inkscape:pageopacity="0"
   inkscape:pageshadow="2"
   inkscape:window-width="1920"
   inkscape:window-height="1178"
   id="namedview3104"
   showgrid="false"
   fit-margin-top="0"
   fit-margin-left="0"
   fit-margin-right="0"
   fit-margin-bottom="0"
   inkscape:zoom="7.3923077"
   inkscape:cx="65"
   inkscape:cy="65"
   inkscape:window-x="-8"
   inkscape:window-y="-8"
   inkscape:window-maximized="1"
   inkscape:current-layer="g3943"
   showguides="true"
   inkscape:guide-bbox="true"
   units="mm" />























<g
   id="g3943"
   transform="translate(-68.656242,-310.15624)"><g
     id="g2988"
     transform="matrix(-0.41788049,0,0,0.41788049,227.34636,256.22354)"><path
       sodipodi:nodetypes="cccsc"
       inkscape:connector-curvature="0"
       style="fill:#ffcb05;fill-opacity:1;stroke:none"
       d="M 88.46875,360.4375 280.91001,288.15625 85.375,214.78125 c -10.596795,21.01768 -16.71875,44.66767 -16.71875,69.8125 0,27.55343 7.242421,53.39552 19.8125,75.84375 z"
       id="path3941"
       transform="translate(-7.2552697e-6,0)" /><path
       sodipodi:nodetypes="scccsccccssscsccscs"
       inkscape:connector-curvature="0"
       style="fill:#006cb7;fill-opacity:1;stroke:none"
       d="m 224.21875,129.0625 c -60.75951,0 -113.23785,34.932 -138.84375,85.71875 l 195.53501,73.375 -192.44126,72.28125 c 26.62011,47.53942 77.3991,79.71875 135.75,79.71875 13.31176,0 26.23048,-1.6979 38.5625,-4.84375 l 18.15625,-139.875 61.75,0 9.96875,76.90625 c 17.09489,-24.97683 27.09375,-55.198 27.09375,-87.75 0,-85.90433 -69.62692,-155.53125 -155.53125,-155.53125 z m 87.59375,108.875 c 13.16445,0 25.02826,7.98551 29.96875,20.1875 0.60257,1.47852 0.875,3.0321 0.875,4.625 l 0,18.3125 -61.71875,0 0,-18.3125 c 0,-1.5929 0.30647,-3.14648 0.90625,-4.625 4.94049,-12.20478 16.80153,-20.1875 29.96875,-20.1875 z"
       id="path3018-7"
       transform="translate(-7.2552697e-6,0)" /><g
       id="g3804"
       transform="matrix(0.93019913,0,0,0.93019913,240.0125,-36.975851)"
       style="fill:#d81920;fill-opacity:1"><path
         inkscape:connector-curvature="0"
         d="m -133.40704,372.27603 h -20.17854 v -29.97955 l 23.49358,-17.00762 8.21555,5.90943 8.07142,-5.90943 -15.71044,-11.38647 c -0.28826,-0.28826 -0.72066,-0.28826 -1.15306,0 l -36.75377,26.80864 c -0.4324,0.28826 -0.57653,0.86479 -0.28827,1.29719 l 4.46811,6.1977 c 0.14413,0.14413 0.4324,0.28826 0.57653,0.43239 0.28827,0 0.4324,0 0.72066,-0.14413 l 4.03571,-2.88265 v 29.11476 c 0,1.15306 1.00893,2.16198 2.16199,2.16198 h 22.1964 v -4.61224 z"
         id="path5-1"
         style="fill:#d81920;fill-opacity:1" /><path
         inkscape:connector-curvature="0"
         d="m -38.56789,340.71103 -36.753775,-26.66451 c -0.288265,-0.28826 -0.720662,-0.28826 -1.153059,0 l -16.286967,11.67473 8.071417,5.90943 8.647947,-6.34182 23.781854,17.15176 v 29.83541 h -20.899205 v 4.32398 h 23.205325 c 1.153059,0 2.161986,-1.00893 2.161986,-2.16199 v -28.82649 l 3.747444,2.73852 c 0.144132,0.14413 0.288265,0.14413 0.57653,0.14413 0,0 0.144132,0 0.144132,0 0.288265,0 0.432398,-0.14413 0.57653,-0.4324 l 4.468106,-6.19769 c 0.288265,-0.28827 0.144132,-0.8648 -0.288265,-1.15306 z"
         id="path7"
         style="fill:#d81920;fill-opacity:1" /><path
         sodipodi:nodetypes="ssccccscccccsccssccssccscccccc"
         inkscape:connector-curvature="0"
         d="m -70.997691,355.55667 0.144132,0 c 0.288265,0 0.432398,-0.14413 0.57653,-0.4324 l 4.468106,-6.19769 c 0.288265,-0.4324 0.144133,-1.00893 -0.144132,-1.29719 l -36.897905,-26.52038 c -0.14414,-0.14413 -0.4324,-0.14413 -0.57653,-0.14413 -0.14413,0 -0.4324,0 -0.57653,0.14413 l -36.89791,26.66451 c -0.4324,0.28826 -0.57653,0.86479 -0.14413,1.29719 l 4.4681,6.1977 c 0.14414,0.14413 0.4324,0.28826 0.57653,0.43239 l 0.14414,0 c 0.14413,0 0.43239,0 0.57653,-0.14413 l 4.0357,-2.88265 0,29.11476 c 0,1.15306 1.00893,2.16198 2.16199,2.16198 l 20.03441,0 11.962995,0 19.602014,0 c 1.153059,0 2.161986,-1.00892 2.161986,-2.16198 l 0,-28.82649 3.747444,2.73851 c 0.144133,-0.14413 0.288265,-0.14413 0.57653,-0.14413 z m -8.647947,23.78185 -47.275442,0.14414 0,-30.12369 23.49359,-17.00762 23.781852,17.15176 z"
         id="path9"
         style="fill:#d81920;fill-opacity:1" /></g></g></g></svg>