<?xml version="1.0" encoding="UTF-8" standalone="no"?>
<svg
   xmlns:dc="http://purl.org/dc/elements/1.1/"
   xmlns:cc="http://creativecommons.org/ns#"
   xmlns:rdf="http://www.w3.org/1999/02/22-rdf-syntax-ns#"
   xmlns:svg="http://www.w3.org/2000/svg"
   xmlns="http://www.w3.org/2000/svg"
   xmlns:sodipodi="http://sodipodi.sourceforge.net/DTD/sodipodi-0.dtd"
   xmlns:inkscape="http://www.inkscape.org/namespaces/inkscape"
   viewBox="0 0 85.281169 59.999998"
   height="60"
   width="85.281174"
   xml:space="preserve"
   version="1.1"
   id="svg2"
   sodipodi:docname="logo_hro.svg"
   inkscape:version="0.92.0 r15299"><sodipodi:namedview
     pagecolor="#ffffff"
     bordercolor="#666666"
     borderopacity="1"
     objecttolerance="10"
     gridtolerance="10"
     guidetolerance="10"
     inkscape:pageopacity="0"
     inkscape:pageshadow="2"
     inkscape:window-width="1920"
     inkscape:window-height="1178"
     id="namedview97"
     showgrid="false"
     inkscape:zoom="16.633333"
     inkscape:cx="42.640587"
     inkscape:cy="30"
     inkscape:window-x="-8"
     inkscape:window-y="-8"
     inkscape:window-maximized="1"
     inkscape:current-layer="svg2"
     fit-margin-top="0"
     fit-margin-left="0"
     fit-margin-right="0"
     fit-margin-bottom="0" /><metadata
     id="metadata8"><rdf:RDF><cc:Work
         rdf:about=""><dc:format>image/svg+xml</dc:format><dc:type
           rdf:resource="http://purl.org/dc/dcmitype/StillImage" /><dc:title></dc:title></cc:Work></rdf:RDF></metadata><defs
     id="defs6"><clipPath
       id="clipPath16"
       clipPathUnits="userSpaceOnUse"><path
         id="path18"
         d="M 0,141.732 H 178.583 V 0 H 0 Z"
         inkscape:connector-curvature="0" /></clipPath></defs><path
     id="path22"
     style="fill:#006cb7;fill-opacity:1;fill-rule:nonzero;stroke:none;stroke-width:0.77180743"
     d="M 38.998894,0 V 33.543521 H 5.8250656 C 36.735955,24.934012 38.998894,0 38.998894,0"
     inkscape:connector-curvature="0" /><path
     id="path30"
     style="fill:#d81920;fill-opacity:1;fill-rule:nonzero;stroke:none;stroke-width:0.77180743"
     d="M 45.550149,0 V 33.543521 H 78.723978 C 47.81309,24.934012 45.550149,0 45.550149,0"
     inkscape:connector-curvature="0" /><g
     id="g36"
     transform="matrix(0.77180746,0,0,-0.77180746,40.068385,22.750955)"><path
       inkscape:connector-curvature="0"
       d="M 0,0 C 1.242,0.225 2.336,0.819 2.336,0.819 2.582,0.943 3.801,1.042 4.57,0.596 4.447,0.1 2.732,-0.124 2.285,-0.074 1.564,-0.198 0.77,-1.02 0,0"
       style="fill:#fbc707;fill-opacity:1;fill-rule:nonzero;stroke:none"
       id="path38" /></g><g
     id="g40"
     transform="matrix(0.77180746,0,0,-0.77180746,40.068385,22.750955)"><path
       inkscape:connector-curvature="0"
       d="M 0,0 C 1.242,0.225 2.336,0.819 2.336,0.819 2.582,0.943 3.801,1.042 4.57,0.596 4.447,0.1 2.732,-0.124 2.285,-0.074 1.564,-0.198 0.77,-1.02 0,0 Z"
       style="fill:none;stroke:#ffffff;stroke-width:0.133;stroke-linecap:butt;stroke-linejoin:round;stroke-miterlimit:3.86400008;stroke-dasharray:none;stroke-opacity:1"
       id="path42" /></g><g
     id="g44"
     transform="matrix(0.77180746,0,0,-0.77180746,41.468752,24.054924)"><path
       inkscape:connector-curvature="0"
       d="M 0,0 C 1.414,-0.247 2.109,0.398 2.109,0.398 2.953,1.218 4.221,0.746 4.221,0.746 4.295,0.448 2.383,-0.297 2.383,-0.297 2.383,-0.297 0.547,-1.143 0,0"
       style="fill:#fbc707;fill-opacity:1;fill-rule:nonzero;stroke:none"
       id="path46" /></g><g
     id="g48"
     transform="matrix(0.77180746,0,0,-0.77180746,41.468752,24.054924)"><path
       inkscape:connector-curvature="0"
       d="M 0,0 C 1.414,-0.247 2.109,0.398 2.109,0.398 2.953,1.218 4.221,0.746 4.221,0.746 4.295,0.448 2.383,-0.297 2.383,-0.297 2.383,-0.297 0.547,-1.143 0,0 Z"
       style="fill:none;stroke:#ffffff;stroke-width:0.133;stroke-linecap:butt;stroke-linejoin:round;stroke-miterlimit:3.86400008;stroke-dasharray:none;stroke-opacity:1"
       id="path50" /></g><path
     id="path54"
     style="fill:#ffcb05;fill-opacity:1;fill-rule:evenodd;stroke:none;stroke-width:0.77180743"
     d="m 37.386662,22.27089 c 0,0 -1.745828,-0.324159 -2.128645,0.710063 -0.248522,1.187811 0.422178,0.861337 0.365065,0.480064 2.509918,-0.480064 2.894278,1.436334 2.894278,1.436334 0.07487,0.652177 -2.837165,0.307952 -2.837165,0.307952 -0.07718,0.861336 3.123506,0.573452 3.123506,0.573452 0,0 -1.207879,2.588642 -3.583502,2.435824 -4.063567,-0.788014 -4.618496,-3.220752 -4.618496,-3.220752 -0.134295,-0.191409 0.7857,-1.629286 0.649862,-2.224349 -0.131208,-1.014927 -1.052746,-0.766405 -1.130699,-0.632111 -0.05556,0.30718 0.632883,0.05711 0.443018,0.632111 -0.38436,0.595063 -0.365065,1.169288 -0.365065,1.533581 -0.115771,0.710063 -0.672244,0.268589 -0.784928,0.134295 0,0 -0.920766,-0.842814 -0.729358,-1.686399 0.07641,-1.091337 -1.054289,-0.86211 -1.01647,-0.707748 -0.07487,0.09416 0.690767,0.343454 0.307951,1.589151 0.01775,0.402884 0.862109,1.054289 0.862109,1.054289 0.459997,0.689224 -0.7857,0.823519 -0.862109,0.671473 -0.959358,-0.498588 -1.284289,-0.191409 -1.302811,-0.03859 0.939289,0.171342 0.746338,0.901471 0.957041,0.976337 0.211475,0.173657 1.513515,-1.072041 2.60485,-0.421407 0.404427,0.402883 -0.708519,1.303583 -0.64909,1.437877 0.07487,0.191409 1.494991,-0.402111 1.494991,-0.402111 0.612044,-0.03936 2.184215,2.242872 2.184215,2.242872 0,0 0.343455,0.382045 0.01853,0.786472 -3.218436,2.739916 -3.50632,0.47852 -3.909204,0.592748 -0.114227,0.172113 -0.269361,1.533581 1.667104,1.303583 -2.051464,0.517111 -2.299987,-0.843586 -2.548509,-0.729358 -0.287883,1.400058 1.302039,1.477239 1.302039,1.477239 1.495763,0.152818 2.722166,-0.595835 2.722166,-0.595835 -1.638547,1.268851 -3.122734,0.614359 -2.990755,0.863652 0.03936,0.09493 0.594292,1.072041 2.607939,0.09493 2.050691,-1.399287 2.547736,-0.650634 2.547736,-0.650634 0,0 0.672244,0.727815 -1.896331,2.146397 -2.337805,1.494218 -1.91717,-0.747882 -2.146396,-0.479293 -0.191409,0.0957 -0.518656,2.797802 -2.10935,1.18704 -0.307179,-0.440702 -1.149993,-2.145625 -1.820695,-0.937746 -0.03627,0.152818 0.307179,-0.325703 0.632883,-0.07872 0.07718,1.191671 0.959357,1.268079 0.959357,1.268079 0.936974,0.497817 -0.05788,1.034223 -0.192181,0.996405 -2.377166,0.28634 -1.724217,1.493446 -1.724217,1.493446 0.05556,-0.24775 0.229226,-0.995631 0.842814,-0.459224 1.053517,-1.169289 2.108578,-1.092108 2.108578,-1.092108 0.382816,0.132751 0.09493,0.900699 -0.135068,1.110631 -2.721392,1.572171 -0.919993,1.801399 -0.919993,1.801399 -0.229227,-0.07564 -0.363522,-1.054289 0.43993,-0.612044 1.609991,-2.43428 2.704413,-2.856459 2.704413,-2.856459 2.012874,-1.074356 2.642669,0.689224 1.49422,1.035765 0.518654,0.133523 1.282743,-0.689995 1.282743,-0.689995 0,0 0.03936,0.364293 -0.955497,1.092107 0.726271,-0.0957 1.66556,-0.958585 1.66556,-0.958585 0,0 -0.03782,0.344227 -0.6707,0.97788 1.130697,-0.403656 1.398514,-0.920767 1.398514,-0.920767 0,0 -0.191408,0.652179 -0.457681,0.941606 1.302039,-0.270132 1.991262,-2.052237 1.991262,-2.052237 0,0 0.767178,1.244155 3.927729,0.344227 2.37871,-0.689996 3.374342,-0.518655 3.374342,-0.518655 0,0 -1.685627,0.174428 -1.533582,2.071532 -0.03631,1.091336 -1.493446,1.80217 -1.493446,1.80217 -1.225631,0.497816 -1.438649,-0.710834 -1.438649,-0.710834 -0.03704,-0.919223 -1.167745,-0.286341 -1.167745,-0.286341 0,0 0.803451,-0.07641 0.822747,0.133522 -0.479294,0.497817 0.499359,1.036538 0.327246,1.13147 -1.149993,-1.264992 -1.917171,-0.650633 -1.917171,-0.650633 0.689997,-0.09648 0.709292,0.861337 1.30204,0.919222 0.441474,0.19218 1.361468,-0.01853 1.361468,-0.01853 0,0 -0.40134,0.574225 -1.495762,0.286341 -1.704923,-0.824291 -1.302039,0.632882 -1.302039,0.632882 0.172885,-0.824291 0.74711,-0.385904 0.74711,-0.385904 0.229226,0.232314 -0.171342,0.616674 0.900699,0.787244 1.321333,0.250065 2.262167,-0.823519 2.262167,-0.823519 0.862109,-0.766405 2.414985,-0.842042 2.414985,-0.842042 0.43993,-0.192952 0.229228,-3.048639 3.239277,-3.030117 0.459997,0.02087 0.249293,1.973513 3.794204,2.166465 2.375625,-0.403656 2.280692,0.152818 2.280692,0.152818 0.325703,0.786471 -1.513514,0.767176 -1.513514,0.767176 l 0.690767,0.211475 c 0,0 -1.037308,0 -0.978651,0.93929 0.287884,-0.518655 1.187811,-0.558017 1.187811,-0.558017 0,0 -0.632882,0.212247 -0.479292,0.654493 0.402884,-0.288656 0.862881,-0.307951 0.862881,-0.307951 0,0 -0.497816,0.307951 -0.517111,0.442245 0.575768,0.266274 1.359153,-0.09648 1.359153,-0.09648 0,0 2.168007,-1.322878 1.189354,-2.377938 -0.382816,-0.612815 -0.210702,-1.111403 -0.400567,-1.187812 -0.366609,-0.03785 -3.852864,0 -4.02652,-1.5714 3.583502,1.283516 4.752791,-0.689996 4.752791,-0.689996 0.38436,-0.249294 1.130697,-4.102156 -2.032169,-3.354275 -4.599201,1.494991 -4.062024,-0.324931 -4.062024,-0.324931 0.343456,-1.725761 3.468504,-0.632882 3.468504,-0.632882 2.875754,1.515058 3.776454,-0.03784 3.8135,-0.287113 0.250838,-0.614358 -0.305636,-2.281462 0.670701,-3.393637 -0.304092,-0.153589 -2.681259,-1.26422 -3.543368,0.267816 -0.538721,0.710064 0,1.419355 0,1.419355 1.129153,1.609219 0.169798,1.475695 0.05711,1.418582 -0.211475,-0.05788 -2.205826,-0.804995 -3.470047,-0.38436 -2.854915,0.978652 -1.782104,3.162867 -0.652948,3.263973 0.825833,0.35812 3.430684,-0.369695 3.430684,-0.369695 2.223577,-0.363521 1.438649,1.859284 1.343716,1.839989 -1.073584,1.054289 -3.814272,-0.01853 -3.910748,-0.172113 -0.305636,-0.152046 -2.682803,-1.782875 -5.271445,-1.975055 6.805026,-3.870615 8.453607,-5.903556 8.453607,-5.903556 2.413441,-2.509145 2.357872,-4.618495 2.357872,-4.618495 0,0 -0.996404,1.017242 -1.420126,1.035764 0.325703,-0.497814 0.172113,-0.5557 0.172113,-0.5557 0,0 -2.222033,1.936465 -5.881945,2.1271 0.382816,-0.497814 0.266274,-0.59352 0.266274,-0.59352 -0.169798,-0.172883 -1.60999,0.612817 -1.60999,0.612817 0,0 1.17006,-0.803452 0.959356,-1.112176 -0.440702,-0.01853 -0.996404,0.767178 -2.664279,0.978653 1.17006,-0.574225 1.035765,-0.709291 1.035765,-0.709291 0,0 -0.229226,-0.249294 -2.836392,1.072812 -3.202229,1.53281 -1.535125,3.927727 -1.535125,3.927727 0,0 0.711607,1.496536 -0.09493,2.512235 -1.072811,1.092107 -3.411389,0.324931 -2.568574,-0.480066 3.355818,-3.295616 0.863652,-6.323417 0.863652,-6.323417 0,0 0.632111,-0.04014 0.882176,-0.135066 0.305636,-0.172113 1.091336,-0.135068 1.167745,-0.402884 0,-0.09493 -0.459226,-0.63211 -2.031398,0.116543 -0.382816,0.151273 -0.803451,-0.23077 -0.803451,-0.23077 0,0 -2.10935,-1.743513 -2.874983,-0.959357"
     inkscape:connector-curvature="0" /><g
     id="g56"
     transform="matrix(0.77180746,0,0,-0.77180746,37.386662,22.27089)"><path
       inkscape:connector-curvature="0"
       d="m 0,0 c 0,0 -2.262,0.42 -2.758,-0.92 -0.322,-1.539 0.547,-1.116 0.473,-0.622 3.252,0.622 3.75,-1.861 3.75,-1.861 0.097,-0.845 -3.676,-0.399 -3.676,-0.399 -0.1,-1.116 4.047,-0.743 4.047,-0.743 0,0 -1.565,-3.354 -4.643,-3.156 -5.265,1.021 -5.984,4.173 -5.984,4.173 -0.174,0.248 1.018,2.111 0.842,2.882 -0.17,1.315 -1.364,0.993 -1.465,0.819 -0.072,-0.398 0.82,-0.074 0.574,-0.819 -0.498,-0.771 -0.473,-1.515 -0.473,-1.987 -0.15,-0.92 -0.871,-0.348 -1.017,-0.174 0,0 -1.193,1.092 -0.945,2.185 0.099,1.414 -1.366,1.117 -1.317,0.917 -0.097,-0.122 0.895,-0.445 0.399,-2.059 0.023,-0.522 1.117,-1.366 1.117,-1.366 0.596,-0.893 -1.018,-1.067 -1.117,-0.87 -1.243,0.646 -1.664,0.248 -1.688,0.05 1.217,-0.222 0.967,-1.168 1.24,-1.265 0.274,-0.225 1.961,1.389 3.375,0.546 0.524,-0.522 -0.918,-1.689 -0.841,-1.863 0.097,-0.248 1.937,0.521 1.937,0.521 0.793,0.051 2.83,-2.906 2.83,-2.906 0,0 0.445,-0.495 0.024,-1.019 -4.17,-3.55 -4.543,-0.62 -5.065,-0.768 -0.148,-0.223 -0.349,-1.987 2.16,-1.689 -2.658,-0.67 -2.98,1.093 -3.302,0.945 -0.373,-1.814 1.687,-1.914 1.687,-1.914 1.938,-0.198 3.527,0.772 3.527,0.772 -2.123,-1.644 -4.046,-0.796 -3.875,-1.119 0.051,-0.123 0.77,-1.389 3.379,-0.123 2.657,1.813 3.301,0.843 3.301,0.843 0,0 0.871,-0.943 -2.457,-2.781 -3.029,-1.936 -2.484,0.969 -2.781,0.621 -0.248,-0.124 -0.672,-3.625 -2.733,-1.538 -0.398,0.571 -1.49,2.78 -2.359,1.215 -0.047,-0.198 0.398,0.422 0.82,0.102 0.1,-1.544 1.243,-1.643 1.243,-1.643 1.214,-0.645 -0.075,-1.34 -0.249,-1.291 -3.08,-0.371 -2.234,-1.935 -2.234,-1.935 0.072,0.321 0.297,1.29 1.092,0.595 1.365,1.515 2.732,1.415 2.732,1.415 0.496,-0.172 0.123,-1.167 -0.175,-1.439 -3.526,-2.037 -1.192,-2.334 -1.192,-2.334 -0.297,0.098 -0.471,1.366 0.57,0.793 2.086,3.154 3.504,3.701 3.504,3.701 2.608,1.392 3.424,-0.893 1.936,-1.342 0.672,-0.173 1.662,0.894 1.662,0.894 0,0 0.051,-0.472 -1.238,-1.415 0.941,0.124 2.158,1.242 2.158,1.242 0,0 -0.049,-0.446 -0.869,-1.267 1.465,0.523 1.812,1.193 1.812,1.193 0,0 -0.248,-0.845 -0.593,-1.22 1.687,0.35 2.58,2.659 2.58,2.659 0,0 0.994,-1.612 5.089,-0.446 3.082,0.894 4.372,0.672 4.372,0.672 0,0 -2.184,-0.226 -1.987,-2.684 -0.047,-1.414 -1.935,-2.335 -1.935,-2.335 -1.588,-0.645 -1.864,0.921 -1.864,0.921 -0.048,1.191 -1.513,0.371 -1.513,0.371 0,0 1.041,0.099 1.066,-0.173 -0.621,-0.645 0.647,-1.343 0.424,-1.466 -1.49,1.639 -2.484,0.843 -2.484,0.843 0.894,0.125 0.919,-1.116 1.687,-1.191 0.572,-0.249 1.764,0.024 1.764,0.024 0,0 -0.52,-0.744 -1.938,-0.371 -2.209,1.068 -1.687,-0.82 -1.687,-0.82 0.224,1.068 0.968,0.5 0.968,0.5 0.297,-0.301 -0.222,-0.799 1.167,-1.02 1.712,-0.324 2.931,1.067 2.931,1.067 1.117,0.993 3.129,1.091 3.129,1.091 0.57,0.25 0.297,3.95 4.197,3.926 0.596,-0.027 0.323,-2.557 4.916,-2.807 3.078,0.523 2.955,-0.198 2.955,-0.198 0.422,-1.019 -1.961,-0.994 -1.961,-0.994 l 0.895,-0.274 c 0,0 -1.344,0 -1.268,-1.217 0.373,0.672 1.539,0.723 1.539,0.723 0,0 -0.82,-0.275 -0.621,-0.848 0.522,0.374 1.118,0.399 1.118,0.399 0,0 -0.645,-0.399 -0.67,-0.573 0.746,-0.345 1.761,0.125 1.761,0.125 0,0 2.809,1.714 1.541,3.081 -0.496,0.794 -0.273,1.44 -0.519,1.539 -0.475,0.049 -4.992,0 -5.217,2.036 4.643,-1.663 6.158,0.894 6.158,0.894 0.498,0.323 1.465,5.315 -2.633,4.346 -5.959,-1.937 -5.263,0.421 -5.263,0.421 0.445,2.236 4.494,0.82 4.494,0.82 3.726,-1.963 4.893,0.049 4.941,0.372 0.325,0.796 -0.396,2.956 0.869,4.397 -0.394,0.199 -3.474,1.638 -4.591,-0.347 -0.698,-0.92 0,-1.839 0,-1.839 1.463,-2.085 0.22,-1.912 0.074,-1.838 -0.274,0.075 -2.858,1.043 -4.496,0.498 -3.699,-1.268 -2.309,-4.098 -0.846,-4.229 1.07,-0.464 4.445,0.479 4.445,0.479 2.881,0.471 1.864,-2.409 1.741,-2.384 -1.391,-1.366 -4.942,0.024 -5.067,0.223 -0.396,0.197 -3.476,2.31 -6.83,2.559 8.817,5.015 10.953,7.649 10.953,7.649 3.127,3.251 3.055,5.984 3.055,5.984 0,0 -1.291,-1.318 -1.84,-1.342 0.422,0.645 0.223,0.72 0.223,0.72 0,0 -2.879,-2.509 -7.621,-2.756 0.496,0.645 0.345,0.769 0.345,0.769 -0.22,0.224 -2.086,-0.794 -2.086,-0.794 0,0 1.516,1.041 1.243,1.441 -0.571,0.024 -1.291,-0.994 -3.452,-1.268 1.516,0.744 1.342,0.919 1.342,0.919 0,0 -0.297,0.323 -3.675,-1.39 -4.149,-1.986 -1.989,-5.089 -1.989,-5.089 0,0 0.922,-1.939 -0.123,-3.255 -1.39,-1.415 -4.42,-0.421 -3.328,0.622 4.348,4.27 1.119,8.193 1.119,8.193 0,0 0.819,0.052 1.143,0.175 0.396,0.223 1.414,0.175 1.513,0.522 0,0.123 -0.595,0.819 -2.632,-0.151 C 4.27,-1.738 3.725,-1.243 3.725,-1.243 3.725,-1.243 0.992,1.016 0,0 Z"
       style="fill:none;stroke:#ffffff;stroke-width:0.133;stroke-linecap:butt;stroke-linejoin:round;stroke-miterlimit:3.86400008;stroke-dasharray:none;stroke-opacity:1"
       id="path58" /></g><g
     id="g60"
     transform="matrix(0.77180746,0,0,-0.77180746,32.095535,22.52111)"><path
       inkscape:connector-curvature="0"
       d="m 0,0 c 0.596,1.142 1.863,0.596 1.887,0.199 0.324,-0.595 0,-2.011 0,-2.011 -0.545,-2.706 1.763,-1.167 1.763,-1.167 1.565,1.638 2.782,0.644 2.782,0.644 l 1.316,-0.894 c 0,0 -2.51,0.822 -3.475,-0.075 -1.89,-2.184 -3.13,-0.644 -3.13,-0.644 -0.721,0.794 0.125,2.483 0.125,2.483 C 1.764,0.373 0,0 0,0"
       style="fill:#d81920;fill-opacity:1;fill-rule:nonzero;stroke:none"
       id="path62" /></g><path
     id="path66"
     style="fill:none;stroke:#ffffff;stroke-width:0.10265039;stroke-linecap:butt;stroke-linejoin:round;stroke-miterlimit:3.86400008;stroke-dasharray:none;stroke-opacity:1"
     d="m 32.095535,22.52111 c 0.459998,-0.881404 1.437878,-0.459997 1.456401,-0.15359 0.250066,0.459226 0,1.552105 0,1.552105 -0.420634,2.088511 1.360697,0.9007 1.360697,0.9007 1.207876,-1.264221 2.147172,-0.497044 2.147172,-0.497044 l 1.015692,0.689995 c 0,0 -1.937236,-0.634426 -2.682031,0.05789 -1.458713,1.685627 -2.415754,0.497044 -2.415754,0.497044 -0.556473,-0.612816 0.09648,-1.916398 0.09648,-1.916398 0.382816,-1.418582 -0.978653,-1.130698 -0.978653,-1.130698 z"
     inkscape:connector-curvature="0" /><path
     id="path70"
     style="fill:#006cb7;fill-opacity:1;fill-rule:nonzero;stroke:none;stroke-width:0.77180743"
     d="m 0,44.491227 h 0.64291561 v 1.860056 H 2.8549158 v -1.860056 h 0.6429157 v 4.611549 H 2.8549158 V 46.814367 H 0.64291561 v 2.288409 H 0 Z"
     inkscape:connector-curvature="0" /><path
     id="path74"
     style="fill:#006cb7;fill-opacity:1;fill-rule:nonzero;stroke:none;stroke-width:0.77180743"
     d="m 6.0425578,47.270196 c -0.7594586,0.214563 -1.0295912,0.442247 -1.0295912,0.878318 0,0.338823 0.2006699,0.566506 0.4978158,0.566506 0.2901997,0 0.6012381,-0.255468 0.7532841,-0.608185 0.096476,-0.235401 0.1381535,-0.476976 0.1381535,-0.8158 v -0.117314 z m 0.4499637,1.832272 c -0.076409,-0.20067 -0.090302,-0.2902 -0.097248,-0.566507 -0.5456679,0.531775 -0.725499,0.642915 -1.0782151,0.642915 -0.5325471,0 -0.9192226,-0.408286 -0.9192226,-0.974792 0,-0.429125 0.2137906,-0.740163 0.6637544,-0.975565 0.2068444,-0.102652 0.296374,-0.131207 0.8150287,-0.290199 l 0.5186546,-0.158993 c -0.047852,-0.435299 -0.2901996,-0.662983 -0.7116064,-0.662983 -0.2763072,0 -0.5595605,0.117315 -0.8435856,0.344998 L 4.6116267,46.171143 c 0.3249309,-0.290199 0.7123783,-0.435299 1.1754628,-0.435299 0.4638563,0 0.829693,0.158992 1.030363,0.449191 0.1443279,0.207617 0.1659386,0.317986 0.1659386,0.912277 v 0.954726 c 0,0.594291 0.020067,0.739391 0.1443279,1.05043 z"
     inkscape:connector-curvature="0" /><path
     id="path78"
     style="fill:#006cb7;fill-opacity:1;fill-rule:nonzero;stroke:none;stroke-width:0.77180743"
     d="m 8.1370888,45.811709 h 0.5881173 v 0.415233 C 9.0632578,45.888118 9.4159735,45.7353 9.8651653,45.7353 c 0.5394937,0 0.9061017,0.228455 1.0512017,0.65758 0.06869,0.20067 0.08258,0.344998 0.08258,0.863653 v 1.846163 H 10.4116 v -1.846163 c 0,-0.429125 -0.02084,-0.573453 -0.12426,-0.746338 -0.124261,-0.221509 -0.3457697,-0.338823 -0.6498619,-0.338823 -0.3735545,0 -0.6776467,0.179831 -0.8158002,0.483922 -0.076409,0.16594 -0.096476,0.317985 -0.096476,0.718553 v 1.728849 H 8.1370888 Z"
     inkscape:connector-curvature="0" /><path
     id="path82"
     style="fill:#006cb7;fill-opacity:1;fill-rule:nonzero;stroke:none;stroke-width:0.77180743"
     d="m 13.639999,46.33029 c -0.172884,-0.131208 -0.386676,-0.20067 -0.601238,-0.20067 -0.283253,0 -0.483923,0.152817 -0.483923,0.366608 0,0.172113 0.0903,0.283254 0.400567,0.504763 0.801909,0.573453 0.975566,0.788014 0.975566,1.216367 0,0.56728 -0.456911,0.960901 -1.112947,0.960901 -0.415233,0 -0.698486,-0.110369 -1.051202,-0.421407 l 0.297146,-0.324931 c 0.270133,0.241576 0.449192,0.331877 0.698486,0.331877 0.338823,0 0.560332,-0.186777 0.560332,-0.476976 0,-0.256241 -0.0903,-0.359663 -0.553386,-0.698486 -0.642915,-0.456139 -0.788016,-0.642916 -0.788016,-0.99486 0,-0.491641 0.449193,-0.85825 1.043484,-0.85825 0.324931,0 0.608185,0.09725 0.850532,0.290972 z"
     inkscape:connector-curvature="0" /><path
     id="path86"
     style="fill:#006cb7;fill-opacity:1;fill-rule:nonzero;stroke:none;stroke-width:0.77180743"
     d="m 16.86214,47.118688 c -0.01466,-0.629022 -0.270132,-0.967847 -0.76023,-0.967847 -0.498587,0 -0.836639,0.366609 -0.885263,0.967847 z m -1.659384,0.379729 c 0.01389,0.767177 0.463083,1.27271 1.119891,1.27271 0.2902,0 0.594292,-0.104193 0.871371,-0.290199 l 0.172113,0.317213 c -0.442245,0.283253 -0.76023,0.387447 -1.174691,0.387447 -0.967846,0 -1.624654,-0.719324 -1.624654,-1.769754 0,-0.988685 0.63597,-1.680225 1.541299,-1.680225 0.5804,0 0.988685,0.283253 1.188583,0.829693 0.09108,0.220737 0.125805,0.49087 0.125805,0.933115 z"
     inkscape:connector-curvature="0" /><path
     inkscape:connector-curvature="0"
     d="m 18.382446,47.284244 h 1.638548 v 0.497815 h -1.638548 z"
     style="fill:#006cb7;fill-opacity:1;fill-rule:nonzero;stroke:none;stroke-width:0.77180743"
     id="path88" /><path
     id="path92"
     style="fill:#006cb7;fill-opacity:1;fill-rule:nonzero;stroke:none;stroke-width:0.77180743"
     d="m 25.377647,49.102468 h -0.587346 v -0.414461 c -0.338824,0.338052 -0.690767,0.490869 -1.140731,0.490869 -0.539494,0 -0.912276,-0.235401 -1.051202,-0.656808 -0.06792,-0.193723 -0.08258,-0.373554 -0.08258,-0.87137 V 45.81148 h 0.588117 v 1.839218 c 0,0.429125 0.02006,0.573453 0.124261,0.754056 0.124261,0.220737 0.34577,0.338051 0.649862,0.338051 0.372782,0 0.677647,-0.179059 0.815029,-0.490869 0.07641,-0.165167 0.09725,-0.317985 0.09725,-0.718553 V 45.81148 h 0.587345 z"
     inkscape:connector-curvature="0" /><path
     id="path96"
     style="fill:#006cb7;fill-opacity:1;fill-rule:nonzero;stroke:none;stroke-width:0.77180743"
     d="m 26.525555,45.811709 h 0.588118 v 0.415233 c 0.338051,-0.338824 0.690768,-0.491642 1.13996,-0.491642 0.539493,0 0.906102,0.228455 1.051202,0.65758 0.06869,0.20067 0.08258,0.344998 0.08258,0.863653 v 1.846163 h -0.587346 v -1.846163 c 0,-0.429125 -0.02084,-0.573453 -0.124261,-0.746338 -0.124261,-0.221509 -0.345769,-0.338823 -0.649862,-0.338823 -0.373555,0 -0.677646,0.179831 -0.8158,0.483922 -0.07641,0.16594 -0.09648,0.317985 -0.09648,0.718553 v 1.728849 h -0.588118 z"
     inkscape:connector-curvature="0" /><path
     id="path100"
     style="fill:#006cb7;fill-opacity:1;fill-rule:nonzero;stroke:none;stroke-width:0.77180743"
     d="m 30.860181,47.395304 c 0,0.828921 0.387448,1.368414 0.981739,1.368414 0.615131,0 1.029591,-0.552613 1.029591,-1.368414 0,-0.740164 -0.407515,-1.244154 -1.001805,-1.244154 -0.63597,0 -1.009525,0.462313 -1.009525,1.244154 m 2.578608,-3.131995 v 4.839233 h -0.573453 v -0.518655 c -0.331876,0.407515 -0.691539,0.595063 -1.15385,0.595063 -0.871371,0 -1.486503,-0.706204 -1.486503,-1.714955 0,-1.002579 0.669929,-1.728077 1.589152,-1.728077 0.463856,0 0.767177,0.138154 1.051201,0.490869 v -1.963478 z"
     inkscape:connector-curvature="0" /><path
     id="path104"
     style="fill:#006cb7;fill-opacity:1;fill-rule:nonzero;stroke:none;stroke-width:0.77180743"
     d="m 37.013571,44.491227 v 2.571662 c 0,0.733217 0.05483,0.995632 0.255467,1.258818 0.193725,0.255468 0.504763,0.393622 0.891438,0.393622 0.505534,0 0.885264,-0.227683 1.057377,-0.642915 0.09725,-0.227684 0.11114,-0.380502 0.11114,-1.016471 v -2.564716 h 0.601238 v 2.613339 c 0,0.829694 -0.06945,1.119893 -0.365837,1.479556 -0.331877,0.393621 -0.808855,0.594291 -1.431702,0.594291 -0.7255,0 -1.278114,-0.283252 -1.554421,-0.788015 -0.165939,-0.304092 -0.207616,-0.573453 -0.207616,-1.341401 v -2.55777 z"
     inkscape:connector-curvature="0" /><path
     id="path108"
     style="fill:#006cb7;fill-opacity:1;fill-rule:nonzero;stroke:none;stroke-width:0.77180743"
     d="m 41.029366,45.811709 h 0.588116 v 0.415233 c 0.338052,-0.338824 0.690768,-0.491642 1.13996,-0.491642 0.539493,0 0.906102,0.228455 1.051202,0.65758 0.06869,0.20067 0.08258,0.344998 0.08258,0.863653 v 1.846163 H 43.30388 v -1.846163 c 0,-0.429125 -0.0208,-0.573453 -0.124261,-0.746338 -0.124261,-0.221509 -0.34577,-0.338823 -0.649862,-0.338823 -0.373555,0 -0.677648,0.179831 -0.815801,0.483922 -0.07641,0.16594 -0.09648,0.317985 -0.09648,0.718553 v 1.728849 h -0.588117 z"
     inkscape:connector-curvature="0" /><path
     inkscape:connector-curvature="0"
     d="m 44.997455,45.811634 h 0.588118 v 3.290988 h -0.588118 z m 0.670701,-1.057375 c 0,0.21379 -0.165167,0.379729 -0.3805,0.379729 -0.206845,0 -0.372784,-0.158992 -0.372784,-0.365836 0,-0.235402 0.152046,-0.386676 0.380502,-0.386676 0.21379,0 0.372782,0.158992 0.372782,0.372783"
     style="fill:#006cb7;fill-opacity:1;fill-rule:nonzero;stroke:none;stroke-width:0.77180743"
     id="path110" /><path
     id="path114"
     style="fill:#006cb7;fill-opacity:1;fill-rule:nonzero;stroke:none;stroke-width:0.77180743"
     d="m 46.255655,45.915749 0.574226,-0.158993 1.029591,2.550824 1.05043,-2.550824 0.498588,0.11114 -1.410093,3.234646 h -0.374326 z"
     inkscape:connector-curvature="0" /><path
     id="path118"
     style="fill:#006cb7;fill-opacity:1;fill-rule:nonzero;stroke:none;stroke-width:0.77180743"
     d="m 52.104493,47.118688 c -0.01469,-0.629022 -0.270133,-0.967847 -0.76023,-0.967847 -0.498588,0 -0.83664,0.366609 -0.885263,0.967847 z m -1.659386,0.379729 c 0.01389,0.767177 0.463085,1.27271 1.119892,1.27271 0.290201,0 0.594292,-0.104193 0.871371,-0.290199 l 0.172114,0.317213 c -0.442246,0.283253 -0.760231,0.387447 -1.174691,0.387447 -0.967848,0 -1.624655,-0.719324 -1.624655,-1.769754 0,-0.988685 0.635969,-1.680225 1.541299,-1.680225 0.580399,0 0.988685,0.283253 1.188584,0.829693 0.09108,0.220737 0.125804,0.49087 0.125804,0.933115 z"
     inkscape:connector-curvature="0" /><path
     id="path122"
     style="fill:#006cb7;fill-opacity:1;fill-rule:nonzero;stroke:none;stroke-width:0.77180743"
     d="m 53.548619,45.811709 h 0.588117 v 0.498588 l 0.144329,-0.180603 c 0.25624,-0.324931 0.352715,-0.394394 0.539492,-0.394394 0.18755,0 0.366609,0.09725 0.588118,0.324931 l -0.276307,0.374327 c -0.186777,-0.09107 -0.311811,-0.124261 -0.449963,-0.124261 -0.20067,0 -0.366609,0.137381 -0.45614,0.372783 -0.06945,0.186005 -0.08953,0.386675 -0.08953,0.828921 v 1.590695 h -0.588118 z"
     inkscape:connector-curvature="0" /><path
     id="path126"
     style="fill:#006cb7;fill-opacity:1;fill-rule:nonzero;stroke:none;stroke-width:0.77180743"
     d="m 57.440845,46.33029 c -0.172886,-0.131208 -0.386676,-0.20067 -0.601239,-0.20067 -0.283253,0 -0.483923,0.152817 -0.483923,0.366608 0,0.172113 0.0903,0.283254 0.400568,0.504763 0.801907,0.573453 0.975564,0.788014 0.975564,1.216367 0,0.56728 -0.456911,0.960901 -1.112946,0.960901 -0.415232,0 -0.698485,-0.110369 -1.051202,-0.421407 l 0.297146,-0.324931 c 0.270132,0.241576 0.449193,0.331877 0.698485,0.331877 0.338824,0 0.560333,-0.186777 0.560333,-0.476976 0,-0.256241 -0.0903,-0.359663 -0.553386,-0.698486 -0.642916,-0.456139 -0.788015,-0.642916 -0.788015,-0.99486 0,-0.491641 0.449192,-0.85825 1.043483,-0.85825 0.324931,0 0.608184,0.09725 0.850531,0.290972 z"
     inkscape:connector-curvature="0" /><path
     inkscape:connector-curvature="0"
     d="m 58.636836,45.811634 h 0.588118 v 3.290988 h -0.588118 z m 0.670701,-1.057375 c 0,0.21379 -0.165938,0.379729 -0.380501,0.379729 -0.206844,0 -0.372783,-0.158992 -0.372783,-0.365836 0,-0.235402 0.152047,-0.386676 0.380502,-0.386676 0.21379,0 0.372782,0.158992 0.372782,0.372783"
     style="fill:#006cb7;fill-opacity:1;fill-rule:nonzero;stroke:none;stroke-width:0.77180743"
     id="path128" /><path
     id="path132"
     style="fill:#006cb7;fill-opacity:1;fill-rule:nonzero;stroke:none;stroke-width:0.77180743"
     d="m 59.985413,45.811709 h 0.456138 v -0.794962 l 0.588117,-0.192951 v 0.987913 h 0.863653 v 0.34577 h -0.863653 v 1.735024 c 0,0.6707 0.109596,0.87137 0.469259,0.87137 0.158993,0 0.297918,-0.03476 0.442246,-0.117315 l 0.145872,0.324931 c -0.235402,0.144328 -0.463857,0.206845 -0.719325,0.206845 -0.338052,0 -0.615131,-0.138154 -0.781069,-0.387448 -0.117315,-0.17906 -0.1451,-0.338052 -0.1451,-0.856706 v -1.776701 h -0.456138 z"
     inkscape:connector-curvature="0" /><path
     id="path136"
     style="fill:#006cb7;fill-opacity:1;fill-rule:nonzero;stroke:none;stroke-width:0.77180743"
     d="m 64.769229,44.926909 c 0,0.20067 -0.152045,0.352716 -0.352715,0.352716 -0.186006,0 -0.344999,-0.158992 -0.344999,-0.352716 0,-0.186006 0.158993,-0.344997 0.351945,-0.344997 0.193724,0 0.345769,0.151273 0.345769,0.344997 m -0.788014,2.343208 c -0.760231,0.214562 -1.029592,0.442245 -1.029592,0.878317 0,0.338823 0.199899,0.566506 0.497044,0.566506 0.2902,0 0.601238,-0.255468 0.754057,-0.608184 0.09648,-0.235401 0.137381,-0.476978 0.137381,-0.815801 v -0.117314 z m -0.525601,-2.343208 c 0,0.20067 -0.151274,0.352716 -0.351944,0.352716 -0.186778,0 -0.34577,-0.158992 -0.34577,-0.352716 0,-0.193724 0.158992,-0.344997 0.352715,-0.344997 0.193725,0 0.344999,0.151273 0.344999,0.344997 m 0.975564,4.175478 c -0.07641,-0.20067 -0.09107,-0.290199 -0.09725,-0.566506 -0.545668,0.531775 -0.726271,0.642915 -1.078986,0.642915 -0.531776,0 -0.918451,-0.408285 -0.918451,-0.974792 0,-0.429126 0.21379,-0.740164 0.662982,-0.975566 0.207617,-0.102651 0.297146,-0.130435 0.815801,-0.290199 l 0.518654,-0.158993 c -0.04865,-0.435299 -0.290199,-0.662981 -0.711606,-0.662981 -0.277079,0 -0.560332,0.117314 -0.843586,0.344998 l -0.228455,-0.2902 c 0.324931,-0.2902 0.712378,-0.4353 1.174692,-0.4353 0.463856,0 0.830464,0.158992 1.030362,0.449193 0.1451,0.207616 0.165938,0.317984 0.165938,0.913047 v 0.953954 c 0,0.594292 0.02087,0.739392 0.1451,1.05043 z"
     inkscape:connector-curvature="0" /><path
     id="path140"
     style="fill:#006cb7;fill-opacity:1;fill-rule:nonzero;stroke:none;stroke-width:0.77180743"
     d="m 65.688761,45.811709 h 0.456138 v -0.794962 l 0.588118,-0.192951 v 0.987913 h 0.863652 v 0.34577 h -0.863652 v 1.735024 c 0,0.6707 0.109597,0.87137 0.469258,0.87137 0.158993,0 0.297918,-0.03476 0.442246,-0.117315 l 0.145872,0.324931 c -0.235401,0.144328 -0.463857,0.206845 -0.719325,0.206845 -0.338051,0 -0.61513,-0.138154 -0.781068,-0.387448 -0.117315,-0.17906 -0.145101,-0.338052 -0.145101,-0.856706 v -1.776701 h -0.456138 z"
     inkscape:connector-curvature="0" /><path
     id="path144"
     style="fill:#006cb7;fill-opacity:1;fill-rule:nonzero;stroke:none;stroke-width:0.77180743"
     d="m 69.843246,46.33029 c -0.172885,-0.131208 -0.386675,-0.20067 -0.601238,-0.20067 -0.283253,0 -0.483923,0.152817 -0.483923,0.366608 0,0.172113 0.0903,0.283254 0.400568,0.504763 0.801909,0.573453 0.975564,0.788014 0.975564,1.216367 0,0.56728 -0.456909,0.960901 -1.112945,0.960901 -0.415233,0 -0.698487,-0.110369 -1.051202,-0.421407 l 0.297145,-0.324931 c 0.270133,0.241576 0.449192,0.331877 0.698487,0.331877 0.338823,0 0.560331,-0.186777 0.560331,-0.476976 0,-0.256241 -0.0903,-0.359663 -0.553386,-0.698486 -0.642915,-0.456139 -0.788015,-0.642916 -0.788015,-0.99486 0,-0.491641 0.449192,-0.85825 1.043484,-0.85825 0.324931,0 0.608185,0.09725 0.850532,0.290972 z"
     inkscape:connector-curvature="0" /><path
     id="path148"
     style="fill:#006cb7;fill-opacity:1;fill-rule:nonzero;stroke:none;stroke-width:0.77180743"
     d="m 72.573982,46.33029 c -0.172886,-0.131208 -0.386676,-0.20067 -0.601239,-0.20067 -0.283253,0 -0.483922,0.152817 -0.483922,0.366608 0,0.172113 0.0903,0.283254 0.400567,0.504763 0.801908,0.573453 0.975565,0.788014 0.975565,1.216367 0,0.56728 -0.45691,0.960901 -1.112946,0.960901 -0.415233,0 -0.698486,-0.110369 -1.051201,-0.421407 l 0.297144,-0.324931 c 0.270134,0.241576 0.449192,0.331877 0.698486,0.331877 0.338824,0 0.560333,-0.186777 0.560333,-0.476976 0,-0.256241 -0.0903,-0.359663 -0.553386,-0.698486 -0.642916,-0.456139 -0.788016,-0.642916 -0.788016,-0.99486 0,-0.491641 0.449192,-0.85825 1.043484,-0.85825 0.324931,0 0.608184,0.09725 0.850532,0.290972 z"
     inkscape:connector-curvature="0" /><path
     id="path152"
     style="fill:#006cb7;fill-opacity:1;fill-rule:nonzero;stroke:none;stroke-width:0.77180743"
     d="m 73.383453,45.811709 h 0.456139 v -0.794962 l 0.588117,-0.192951 v 0.987913 h 0.863652 v 0.34577 h -0.863652 v 1.735024 c 0,0.6707 0.109596,0.87137 0.469259,0.87137 0.158992,0 0.297917,-0.03476 0.442245,-0.117315 l 0.145871,0.324931 c -0.2354,0.144328 -0.463855,0.206845 -0.719324,0.206845 -0.338051,0 -0.61513,-0.138154 -0.781069,-0.387448 -0.117315,-0.17906 -0.145099,-0.338052 -0.145099,-0.856706 v -1.776701 h -0.456139 z"
     inkscape:connector-curvature="0" /><path
     id="path156"
     style="fill:#006cb7;fill-opacity:1;fill-rule:nonzero;stroke:none;stroke-width:0.77180743"
     d="m 77.378945,47.270196 c -0.759458,0.214563 -1.029589,0.442247 -1.029589,0.878318 0,0.338823 0.20067,0.566506 0.497814,0.566506 0.290201,0 0.601239,-0.255468 0.753285,-0.608185 0.09648,-0.235401 0.138153,-0.476976 0.138153,-0.8158 v -0.117314 z m 0.449965,1.832272 c -0.07641,-0.20067 -0.0903,-0.2902 -0.09725,-0.566507 -0.545668,0.531775 -0.725499,0.642915 -1.078215,0.642915 -0.532547,0 -0.919222,-0.408286 -0.919222,-0.974792 0,-0.429125 0.21379,-0.740163 0.663753,-0.975565 0.206845,-0.102652 0.296375,-0.131207 0.815029,-0.290199 l 0.518655,-0.158993 c -0.04785,-0.435299 -0.290199,-0.662983 -0.711607,-0.662983 -0.276307,0 -0.55956,0.117315 -0.843585,0.344998 l -0.228455,-0.290199 c 0.32493,-0.290199 0.712378,-0.435299 1.175462,-0.435299 0.463857,0 0.829694,0.158992 1.030364,0.449191 0.144328,0.207617 0.165938,0.317986 0.165938,0.912277 v 0.954726 c 0,0.594291 0.02007,0.739391 0.144328,1.05043 z"
     inkscape:connector-curvature="0" /><path
     id="path160"
     style="fill:#006cb7;fill-opacity:1;fill-rule:nonzero;stroke:none;stroke-width:0.77180743"
     d="m 79.839851,47.395304 c 0,0.828921 0.387447,1.368414 0.981739,1.368414 0.61513,0 1.029592,-0.552613 1.029592,-1.368414 0,-0.740164 -0.407515,-1.244154 -1.001807,-1.244154 -0.63597,0 -1.009524,0.462313 -1.009524,1.244154 m 2.578609,-3.131995 v 4.839233 h -0.573453 v -0.518655 c -0.331878,0.407515 -0.69154,0.595063 -1.153852,0.595063 -0.871371,0 -1.486501,-0.706204 -1.486501,-1.714955 0,-1.002579 0.669928,-1.728077 1.589151,-1.728077 0.463857,0 0.767176,0.138154 1.051202,0.490869 v -1.963478 z"
     inkscape:connector-curvature="0" /><path
     id="path164"
     style="fill:#006cb7;fill-opacity:1;fill-rule:nonzero;stroke:none;stroke-width:0.77180743"
     d="m 83.179542,45.811709 h 0.456138 v -0.794962 l 0.588117,-0.192951 v 0.987913 h 0.863653 v 0.34577 h -0.863653 v 1.735024 c 0,0.6707 0.109598,0.87137 0.469259,0.87137 0.158993,0 0.297918,-0.03476 0.442246,-0.117315 l 0.145872,0.324931 c -0.235401,0.144328 -0.463857,0.206845 -0.719325,0.206845 -0.338052,0 -0.61513,-0.138154 -0.781069,-0.387448 -0.117315,-0.17906 -0.1451,-0.338052 -0.1451,-0.856706 v -1.776701 h -0.456138 z"
     inkscape:connector-curvature="0" /><path
     id="path168"
     style="fill:#006cb7;fill-opacity:1;fill-rule:nonzero;stroke:none;stroke-width:0.77180743"
     d="m 21.859285,56.163344 c 0.472347,0 0.684594,-0.0602 0.865197,-0.231541 0.172113,-0.161309 0.272447,-0.443018 0.272447,-0.724728 0,-0.321843 -0.121174,-0.584257 -0.321844,-0.725498 -0.161308,-0.100335 -0.382816,-0.14047 -0.796505,-0.14047 h -0.382045 v 1.822237 z M 19.48289,53.162557 h 2.607937 c 1.136873,0 1.620796,0.09107 2.043747,0.382818 0.483151,0.332648 0.755599,0.886806 0.755599,1.531265 0,0.825063 -0.403656,1.429387 -1.23875,1.852338 L 25.242117,59.778491 23.137399,60 22.019821,57.230755 h -0.523286 v 2.648071 H 19.48289 Z"
     inkscape:connector-curvature="0" /><path
     id="path172"
     style="fill:#006cb7;fill-opacity:1;fill-rule:nonzero;stroke:none;stroke-width:0.77180743"
     d="m 28.059368,56.516062 c 0,1.390024 0.402113,2.074618 1.227947,2.074618 0.8158,0 1.228717,-0.695399 1.228717,-2.044518 0,-1.420126 -0.402883,-2.104719 -1.228717,-2.104719 -0.815801,0 -1.227947,0.684593 -1.227947,2.074619 m 4.560611,-0.03014 c 0,2.053781 -1.379219,3.504006 -3.322631,3.504006 -1.953445,0 -3.342698,-1.450225 -3.342698,-3.483939 0,-2.024451 1.430159,-3.463871 3.423738,-3.463871 1.852337,0 3.241591,1.469521 3.241591,3.443804"
     inkscape:connector-curvature="0" /><path
     id="path176"
     style="fill:#006cb7;fill-opacity:1;fill-rule:nonzero;stroke:none;stroke-width:0.77180743"
     d="m 37.419849,54.562388 c -0.372011,-0.180603 -0.633653,-0.25161 -0.926168,-0.25161 -0.382046,0 -0.633655,0.161308 -0.633655,0.422952 0,0.211475 0.110369,0.342682 0.694627,0.8459 0.603554,0.513253 0.794962,0.684594 1.026504,0.936203 0.422951,0.443017 0.644459,0.966302 0.644459,1.49036 0,1.188583 -1.037309,1.983545 -2.58787,1.983545 -0.805767,0 -1.459488,-0.191408 -2.114752,-0.614359 l 0.614359,-1.117576 c 0.372782,0.302548 0.8158,0.473117 1.218684,0.473117 0.463084,0 0.764861,-0.261643 0.764861,-0.653721 0,-0.39285 -0.17057,-0.614359 -0.95627,-1.269623 -0.473117,-0.402112 -0.654493,-0.573453 -0.855934,-0.784928 -0.321844,-0.351944 -0.473118,-0.744794 -0.473118,-1.197846 0,-1.057376 0.946236,-1.772841 2.356329,-1.772841 0.614358,0 1.187811,0.141241 1.762035,0.443017 z"
     inkscape:connector-curvature="0" /><path
     id="path180"
     style="fill:#006cb7;fill-opacity:1;fill-rule:nonzero;stroke:none;stroke-width:0.77180743"
     d="m 40.761085,54.441832 h -1.933378 v -1.278886 h 5.900468 v 1.278886 h -1.954216 v 5.437383 h -2.012874 z"
     inkscape:connector-curvature="0" /><path
     id="path184"
     style="fill:#006cb7;fill-opacity:1;fill-rule:nonzero;stroke:none;stroke-width:0.77180743"
     d="m 47.303307,56.516062 c 0,1.390024 0.402112,2.074618 1.227946,2.074618 0.815801,0 1.228718,-0.695399 1.228718,-2.044518 0,-1.420126 -0.402885,-2.104719 -1.228718,-2.104719 -0.8158,0 -1.227946,0.684593 -1.227946,2.074619 m 4.56061,-0.03014 c 0,2.053781 -1.37922,3.504006 -3.322631,3.504006 -1.953444,0 -3.342697,-1.450225 -3.342697,-3.483939 0,-2.024451 1.430159,-3.463871 3.423737,-3.463871 1.852339,0 3.241591,1.469521 3.241591,3.443804"
     inkscape:connector-curvature="0" /><path
     id="path188"
     style="fill:#006cb7;fill-opacity:1;fill-rule:nonzero;stroke:none;stroke-width:0.77180743"
     d="m 58.104827,54.60314 c -0.382817,-0.111141 -0.644459,-0.151275 -0.947008,-0.151275 -1.29818,0 -2.11398,0.815029 -2.11398,2.094686 0,1.288146 0.794961,2.043746 2.144853,2.043746 0.352715,0 0.654492,-0.04014 1.047342,-0.150502 l 0.37201,1.258818 c -0.523284,0.190635 -1.097509,0.290971 -1.680996,0.290971 -2.276059,0 -3.987157,-1.510428 -3.987157,-3.524073 0,-1.983545 1.610763,-3.413704 3.876018,-3.413704 0.634425,0 1.147677,0.09107 1.792135,0.332648 z"
     inkscape:connector-curvature="0" /><path
     id="path192"
     style="fill:#006cb7;fill-opacity:1;fill-rule:nonzero;stroke:none;stroke-width:0.77180743"
     d="m 59.782662,53.162793 h 2.013646 v 2.769244 l 1.711868,-2.859546 1.742742,0.352715 -1.742742,2.678173 2.367135,3.514039 -2.094686,0.362749 -1.984317,-3.362764 v 3.261658 h -2.013646 z"
     inkscape:connector-curvature="0" /></svg>